{
    "asset" : {
        "generator" : "Khronos glTF Blender I/O v3.3.32",
        "version" : "2.0"
    },
    "scene" : 0,
    "scenes" : [
        {
            "name" : "Scene",
            "nodes" : [
                0
            ]
        }
    ],
    "nodes" : [
        {
            "mesh" : 0,
            "name" : "Emoticon_27",
            "rotation" : [
                0.6831750869750977,
                0.1824064701795578,
                0.18240651488304138,
                0.6831746697425842
            ]
        }
    ],
    "materials" : [
        {
            "doubleSided" : true,
            "name" : "M_Emoticon_27",
            "pbrMetallicRoughness" : {
                "metallicFactor" : 0,
                "metallicRoughnessTexture" : {
                    "index" : 0
                }
            }
        }
    ],
    "meshes" : [
        {
            "name" : "Emoticon_27",
            "primitives" : [
                {
                    "attributes" : {
                        "POSITION" : 0,
                        "NORMAL" : 1,
                        "TEXCOORD_0" : 2
                    },
                    "indices" : 3,
                    "material" : 0
                }
            ]
        }
    ],
    "textures" : [
        {
            "sampler" : 0,
            "source" : 0
        }
    ],
    "images" : [
        {
            "bufferView" : 4,
            "mimeType" : "image/png",
            "name" : "Image"
        }
    ],
    "accessors" : [
        {
            "bufferView" : 0,
            "componentType" : 5126,
            "count" : 3442,
            "max" : [
                1.270583987236023,
                0.5759061574935913,
                1.98980712890625
            ],
            "min" : [
                -1.1008909940719604,
                -0.8476468324661255,
                -1.9740898609161377
            ],
            "type" : "VEC3"
        },
        {
            "bufferView" : 1,
            "componentType" : 5126,
            "count" : 3442,
            "type" : "VEC3"
        },
        {
            "bufferView" : 2,
            "componentType" : 5126,
            "count" : 3442,
            "type" : "VEC2"
        },
        {
            "bufferView" : 3,
            "componentType" : 5123,
            "count" : 19434,
            "type" : "SCALAR"
        }
    ],
    "bufferViews" : [
        {
            "buffer" : 0,
            "byteLength" : 41304,
            "byteOffset" : 0,
            "target" : 34962
        },
        {
            "buffer" : 0,
            "byteLength" : 41304,
            "byteOffset" : 41304,
            "target" : 34962
        },
        {
            "buffer" : 0,
            "byteLength" : 27536,
            "byteOffset" : 82608,
            "target" : 34962
        },
        {
            "buffer" : 0,
            "byteLength" : 38868,
            "byteOffset" : 110144,
            "target" : 34963
        },
        {
            "buffer" : 0,
            "byteLength" : 90,
            "byteOffset" : 149012
        }
    ],
    "samplers" : [
        {
            "magFilter" : 9729,
            "minFilter" : 9987
        }
    ],
    "buffers" : [
        {
            "byteLength" : 149104,
            "uri" : "data:application/octet-stream;base64,"
        }
    ]
}
