<?xml version="1.0" encoding="UTF-8"?><svg id="Capa_1" xmlns="http://www.w3.org/2000/svg" xmlns:xlink="http://www.w3.org/1999/xlink" viewBox="0 0 16 16"><defs><style>.cls-1{fill:#fff;}.cls-2,.cls-3{fill:none;}.cls-3{clip-path:url(#clippath);}</style><clipPath id="clippath"><rect class="cls-2" width="16" height="16"/></clipPath></defs><rect width="16" height="16"/><g class="cls-3"><path class="cls-1" d="m20.63,8.22s0,.02,0,.04h.2c-.01-.09-.03-.18-.04-.27-.49-3.41-.91-6.36-1.88-6.36-.65,0-1.05,1.28-1.39,3.14-.17.82-.32,1.78-.45,2.86-.02.12-.03.24-.05.37-.01.09-.03.19-.04.28-.26.95-.9,1.61-1.65,1.61s-1.43-.72-1.67-1.71c0-.06-.02-.12-.03-.18-.02-.14-.04-.28-.06-.43-.12-1.03-.27-1.95-.43-2.73-.34-1.89-.74-3.2-1.4-3.2-.98,0-1.4,2.95-1.88,6.36,0,.06-.02.12-.03.18h.2c.18-1.13.89-1.96,1.72-1.96.77,0,1.42.7,1.67,1.69,0,.04.01.08.02.12.03.21.06.41.09.62.12,1.01.27,1.91.42,2.68.34,1.81.74,3.06,1.37,3.06.57,0,.95-1.01,1.27-2.53.23-.99.43-2.23.59-3.67,0-.05.01-.11.02-.16,0-.04.01-.09.02-.13.25-.98.9-1.68,1.66-1.68.85,0,1.56.86,1.73,2.01h0Z"/><path class="cls-1" d="m13.48,8.22s0,.02,0,.04h.2c-.01-.09-.03-.18-.04-.27-.49-3.41-.91-6.36-1.88-6.36-.65,0-1.05,1.28-1.39,3.14-.17.82-.32,1.78-.45,2.86-.02.12-.03.24-.05.37-.01.09-.03.19-.04.28-.26.95-.9,1.61-1.65,1.61s-1.43-.72-1.67-1.71c0-.06-.02-.12-.03-.18-.02-.14-.04-.28-.06-.43-.12-1.03-.27-1.95-.43-2.73-.34-1.89-.74-3.2-1.4-3.2-.98,0-1.4,2.95-1.88,6.36,0,.06-.02.12-.03.18h.2c.18-1.13.89-1.96,1.72-1.96.77,0,1.42.7,1.67,1.69,0,.04.01.08.02.12.03.21.06.41.09.62.12,1.01.27,1.91.42,2.68.34,1.81.74,3.06,1.37,3.06.57,0,.95-1.01,1.27-2.53.23-.99.43-2.23.59-3.67,0-.05.01-.11.02-.16,0-.04.01-.09.02-.13.25-.98.9-1.68,1.66-1.68.85,0,1.56.86,1.73,2.01h0Z"/><path class="cls-1" d="m6.33,8.22s0,.02,0,.04h.2c-.01-.09-.03-.18-.04-.27-.49-3.41-.91-6.36-1.88-6.36-.65,0-1.05,1.28-1.39,3.14-.17.82-.32,1.78-.45,2.86-.02.12-.03.24-.05.37-.01.09-.03.19-.04.28-.26.95-.9,1.61-1.65,1.61s-1.43-.72-1.67-1.71c0-.06-.02-.12-.03-.18-.02-.14-.04-.28-.06-.43-.12-1.03-.27-1.95-.43-2.73-.34-1.89-.74-3.2-1.4-3.2-.98,0-1.4,2.95-1.88,6.36,0,.06-.02.12-.03.18h.2c.18-1.13.89-1.96,1.72-1.96.77,0,1.42.7,1.67,1.69,0,.04.01.08.02.12.03.21.06.41.09.62.12,1.01.27,1.91.42,2.68.34,1.81.74,3.06,1.37,3.06.57,0,.95-1.01,1.27-2.53.23-.99.43-2.23.59-3.67,0-.05.01-.11.02-.16,0-.04.01-.09.02-.13.25-.98.9-1.68,1.66-1.68.85,0,1.56.86,1.73,2.01h0Z"/></g></svg>